<svg xmlns="http://www.w3.org/2000/svg" viewBox="0 0 32 32" id="nike-logo"><path fill="#F5E6FE" d="M26 32H6a6 6 0 0 1-6-6V6a6 6 0 0 1 6-6h20a6 6 0 0 1 6 6v20a6 6 0 0 1-6 6z"></path><path fill="#D9A4FC" d="M23.964 16.421c-.085-.217-.339-.407-.696-.313-.05.013-7.804 2.219-11.14 3.168-.555.163-1.113.057-1.388-.265-.332-.389-.285-1.085.132-1.961a.5.5 0 0 0-.839-.53c-2.069 2.551-2.58 4.525-1.439 5.56.55.499 1.152.67 1.737.67.809 0 1.587-.327 2.157-.566.921-.386 10.739-4.861 11.182-5.064.323-.172.379-.482.294-.699z"></path><path fill="#BE63F9" d="M11.833 16.083a.5.5 0 0 1-.465-.686l1.333-3.333a.5.5 0 0 1 .965.186v3.333a.5.5 0 0 1-1 0v-.737l-.369.923a.5.5 0 0 1-.464.314z"></path><path fill="#BE63F9" d="M13.166 16.083a.5.5 0 0 1-.465-.686l1.333-3.333a.5.5 0 0 1 .929.371l-1.333 3.333a.499.499 0 0 1-.464.315zm1.924 0a.5.5 0 0 1-.465-.686l1.333-3.333a.5.5 0 0 1 .929.371l-1.333 3.333a.499.499 0 0 1-.464.315zm1.91 0a.5.5 0 0 1-.465-.686l1.333-3.333a.5.5 0 0 1 .929.371l-1.333 3.333a.5.5 0 0 1-.464.315z"></path><path fill="#BE63F9" d="M18.5 16.083a.497.497 0 0 1-.482-.369l-.471-1.74a.501.501 0 0 1 .133-.489l1.637-1.593a.5.5 0 0 1 .698.717l-1.427 1.388.394 1.456a.5.5 0 0 1-.482.63zm3 0h-1.333a.499.499 0 0 1-.464-.686l1.333-3.333a.5.5 0 0 1 .464-.314h1.333a.5.5 0 0 1 0 1h-.995l-.934 2.333h.596a.5.5 0 0 1 0 1z"></path><path fill="#BE63F9" d="M22.167 14.416h-1.333a.5.5 0 0 1 0-1h1.333a.5.5 0 0 1 0 1z"></path></svg>